# xmcd
#
# Track frame offsets:
# 150
# 8214
# 23045
# 39884
# 50545
# 63250
# 78465
# 90156
# 101378
# 119365
# 134309
# 149156
# 159388
#
# Disc length: 2317 seconds
#
#
# Revision: 0
# Processed by: cddbd v1.5.2PL0 Copyright (c) Steve Scherf et al.
# Submitted via: FreeRIP 2.96 
#
DISCID=9d090b0d
DTITLE=Marvin, Paul [AUS] - Returning to New Places
DYEAR=1998
DGENRE=Blues
TTITLE0=We'll Drink Our Wine [from 'Returning to New Places', 1998] [MLVox]
TTITLE1=Do What You Do [from 'Returning to New Places', 1998] [MLVox]
TTITLE2=My Love Ain't Getting Through [from 'Returning to New Places', 1998] [MLVox]
TTITLE3=Be You Fool [Solo version] [from 'Returning to New Places', 1998] [MLVox]
TTITLE4=Woke in the Morning [from 'Returning to New Places', 1998] [MLVox]
TTITLE5=Rainy Day Blues [from 'Returning to New Places', 1998] [MLVox]
TTITLE6=Play My Songs [from 'Returning to New Places', 1998] [MLVox]
TTITLE7=Sailing Ship Blues [from 'Returning to New Places', 1998] [MLVox]
TTITLE8=Sitting in My Chair [from 'Returning to New Places', 1998] [MLVox]
TTITLE9=You Never Can Tell [In memory of Sally-Anne Young and Dean Marvin] [from 'Returning to New Places', 1998] [MLVox]
TTITLE10=Looking Fine [from 'Returning to New Places', 1998] [MLVox]
TTITLE11=Sour Grapes [from 'Returning to New Places', 1998] [Instr]
TTITLE12=Be Your Fool [from 'Returning to New Places', 1998] [MLVox]
EXTD=Australian artist from Perth, Western Australia
EXTT0=
EXTT1=
EXTT2=
EXTT3=
EXTT4=
EXTT5=
EXTT6=
EXTT7=
EXTT8=
EXTT9=
EXTT10=
EXTT11=
EXTT12=
PLAYORDER=
